<!DOCTYPE svg PUBLIC "-//W3C//DTD SVG 1.1//EN" "http://www.w3.org/Graphics/SVG/1.1/DTD/svg11.dtd">
<!-- Uploaded to: SVG Repo, www.svgrepo.com, Transformed by: SVG Repo Mixer Tools -->
<svg width="800px" height="800px" viewBox="0 0 48 48" xmlns="http://www.w3.org/2000/svg" fill="#F00822">
<g id="SVGRepo_bgCarrier" stroke-width="0"/>
<g id="SVGRepo_tracerCarrier" stroke-linecap="round" stroke-linejoin="round"/>
<g id="SVGRepo_iconCarrier"> <title>calendar-event-activity</title> <g id="Layer_2" data-name="Layer 2"> <g id="icons_Q2" data-name="icons Q2"> <rect width="48" height="48" fill="none"/> <g> <circle cx="12" cy="20" r="2"/> <path d="M20,29H36a2,2,0,0,0,0-4H20a2,2,0,0,0,0,4Z"/> <path d="M20,22H36a2,2,0,0,0,0-4H20a2,2,0,0,0,0,4Z"/> <path d="M20,36H36a2,2,0,0,0,0-4H20a2,2,0,0,0,0,4Z"/> <circle cx="12" cy="27" r="2"/> <circle cx="12" cy="34" r="2"/> <path d="M44,4H4A2,2,0,0,0,2,6V42a2,2,0,0,0,2,2H44a2,2,0,0,0,2-2V6A2,2,0,0,0,44,4ZM42,40H6V14H42Zm0-30H6V8H42Z"/> </g> </g> </g> </g>
</svg>